<svg width="16" height="13" viewBox="0 0 16 13" fill="none" xmlns="http://www.w3.org/2000/svg">
<path d="M9.70663 12.6262L14.9576 7.07261C15.1073 6.91421 15.1862 6.70627 15.1799 6.48268C15.1738 6.26348 15.0834 6.0604 14.925 5.91063L9.37143 0.659558C9.04325 0.349374 8.52366 0.363928 8.2136 0.69199L7.7366 1.19623C7.58695 1.35463 7.508 1.56257 7.51414 1.7819C7.52028 2.0011 7.61095 2.21136 7.76922 2.36101L11.0095 5.43137L0.996234 5.71185C0.544928 5.72449 0.186652 6.08825 0.199294 6.53956L0.218726 7.23331C0.231367 7.68462 0.610446 8.06354 1.06175 8.0509L11.1106 7.76942L8.01219 11.0352C7.86254 11.1935 7.78343 11.396 7.78958 11.6153C7.79572 11.8346 7.88611 12.0348 8.04439 12.1847L8.54883 12.66C8.8769 12.9703 9.39632 12.9545 9.70663 12.6262Z" fill="#00D664"/>
</svg>
